<svg xmlns="http://www.w3.org/2000/svg" viewBox="0 0 32 32" role="img" aria-label="Mutawazin">
  <title>Mutawazin</title>
  <circle cx="16" cy="16" r="16" fill="#173343"></circle>
  <g fill="#f6f3ec">
    <path d="M3 14 Q10 15 16 16.5 L16 28 Q11 21 3 14 Z"></path>
    <path d="M29 14 Q22 15 16 16.5 L16 28 Q21 21 29 14 Z"></path>
  </g>
  <path d="M16 16.5 C 14 9, 11 6, 3 7 C 6 14, 10 16, 16 16.5 Z" fill="#7ba37a"></path>
  <path d="M16 16.5 C 18 9, 21 6, 29 7 C 26 14, 22 16, 16 16.5 Z" fill="#7ba37a"></path>
  <path d="M16 16.5 C 12.5 13, 11.5 8, 15.5 3 C 20.5 8, 19.5 13, 16 16.5 Z" fill="#9bb39a"></path>
  <circle cx="15.7" cy="3.2" r="0.8" fill="#c9a35a"></circle>
</svg>