<svg xmlns="http://www.w3.org/2000/svg" viewBox="0 0 64 64" role="img" aria-label="Mutawazin">
  <title>Mutawazin</title>
  <g fill="currentColor">
    <path d="M6 28 Q20 30 32 33 L32 56 Q22 42 6 28 Z"></path>
    <path d="M58 28 Q44 30 32 33 L32 56 Q42 42 58 28 Z"></path>
    <path d="M32 33 C 28 18, 22 12, 6 14 C 12 28, 20 32, 32 33 Z"></path>
    <path d="M32 33 C 36 18, 42 12, 58 14 C 52 28, 44 32, 32 33 Z"></path>
    <path d="M32 33 C 25 26, 23 16, 31 6 C 41 16, 39 26, 32 33 Z"></path>
    <circle cx="31.5" cy="6.5" r="1.4"></circle>
  </g>
</svg>